<?xml version="1.0" standalone="no"?>
 <!DOCTYPE svg PUBLIC "-//W3C//DTD SVG 1.1//EN" 
 "http://www.w3.org/Graphics/SVG/1.1/DTD/svg11.dtd"> 
<svg
  xmlns:svg="http://www.w3.org/2000/svg"
  xmlns="http://www.w3.org/2000/svg"
  xmlns:xlink="http://www.w3.org/1999/xlink"
  xmlns:inkscape="http://www.inkscape.org/namespaces/inkscape"
  version="1.1"
  width="100.0252mm" height="112.3950mm" viewBox="0.0000 0.0000 100.0252 112.3950">
<title>SVG Image created as pcb_layout.svg date 2026-04-12T16:15:24 </title>
  <desc>Image generated by PCBNEW </desc>
<g style="fill:#000000; fill-opacity:1.0000;stroke:#000000; stroke-opacity:1.0000;
stroke-linecap:round; stroke-linejoin:round;"
 transform="translate(0 0) scale(1 1)">
<path style="fill:#C83434; fill-opacity:1.0000; stroke:none;fill-rule:evenodd;"
d="M 51.5250,44.2400
48.5250,44.2400
49.6650,41.3400
50.3950,41.3400
Z" /> 
<path style="fill:#C83434; fill-opacity:1.0000; stroke:none;fill-rule:evenodd;"
d="M 48.5250,44.2400
51.5250,44.2400
51.5250,47.1300
48.5250,47.1300
Z" /> 
<path style="fill:#C83434; fill-opacity:1.0000; stroke:none;fill-rule:evenodd;"
d="M 48.5250,93.4100
51.5250,93.4100
51.5250,95.4100
48.5250,95.4100
Z" /> 
<path style="fill:#C83434; fill-opacity:1.0000; stroke:none;fill-rule:evenodd;"
d="M 49.6650,41.0300
49.6768,40.9707
49.7104,40.9204
49.7607,40.8868
49.8200,40.8750
50.2450,40.8750
50.3043,40.8868
50.3546,40.9204
50.3882,40.9707
50.4000,41.0300
50.4000,41.3400
50.3882,41.3993
50.3546,41.4496
50.3043,41.4832
50.2450,41.4950
49.8200,41.4950
49.7607,41.4832
49.7104,41.4496
49.6768,41.3993
49.6650,41.3400
Z" /> 
<path style="fill:#C83434; fill-opacity:1.0000; stroke:none;fill-rule:evenodd;"
d="M 50.8000,41.0300
50.8118,40.9707
50.8454,40.9204
50.8957,40.8868
50.9550,40.8750
51.3800,40.8750
51.4393,40.8868
51.4896,40.9204
51.5232,40.9707
51.5350,41.0300
51.5350,41.3400
51.5232,41.3993
51.4896,41.4496
51.4393,41.4832
51.3800,41.4950
50.9550,41.4950
50.8957,41.4832
50.8454,41.4496
50.8118,41.3993
50.8000,41.3400
Z" /> 
<path style="fill:#C83434; fill-opacity:1.0000; stroke:none;fill-rule:evenodd;"
d="M 49.6400,36.5050
49.6518,36.4457
49.6854,36.3954
49.7357,36.3618
49.7950,36.3500
50.2200,36.3500
50.2793,36.3618
50.3296,36.3954
50.3632,36.4457
50.3750,36.5050
50.3750,36.8150
50.3632,36.8743
50.3296,36.9246
50.2793,36.9582
50.2200,36.9700
49.7950,36.9700
49.7357,36.9582
49.6854,36.9246
49.6518,36.8743
49.6400,36.8150
Z" /> 
<path style="fill:#C83434; fill-opacity:1.0000; stroke:none;fill-rule:evenodd;"
d="M 50.7750,36.5050
50.7868,36.4457
50.8204,36.3954
50.8707,36.3618
50.9300,36.3500
51.3550,36.3500
51.4143,36.3618
51.4646,36.3954
51.4982,36.4457
51.5100,36.5050
51.5100,36.8150
51.4982,36.8743
51.4646,36.9246
51.4143,36.9582
51.3550,36.9700
50.9300,36.9700
50.8707,36.9582
50.8204,36.9246
50.7868,36.8743
50.7750,36.8150
Z" /> 
<path style="fill:#C83434; fill-opacity:1.0000; stroke:none;fill-rule:evenodd;"
d="M 49.8700,39.7950
49.8107,39.7832
49.7604,39.7496
49.7268,39.6993
49.7150,39.6400
49.7150,39.2150
49.7268,39.1557
49.7604,39.1054
49.8107,39.0718
49.8700,39.0600
50.1800,39.0600
50.2393,39.0718
50.2896,39.1054
50.3232,39.1557
50.3350,39.2150
50.3350,39.6400
50.3232,39.6993
50.2896,39.7496
50.2393,39.7832
50.1800,39.7950
Z" /> 
<path style="fill:#C83434; fill-opacity:1.0000; stroke:none;fill-rule:evenodd;"
d="M 49.8700,38.6600
49.8107,38.6482
49.7604,38.6146
49.7268,38.5643
49.7150,38.5050
49.7150,38.0800
49.7268,38.0207
49.7604,37.9704
49.8107,37.9368
49.8700,37.9250
50.1800,37.9250
50.2393,37.9368
50.2896,37.9704
50.3232,38.0207
50.3350,38.0800
50.3350,38.5050
50.3232,38.5643
50.2896,38.6146
50.2393,38.6482
50.1800,38.6600
Z" /> 
<path style="fill:#C83434; fill-opacity:1.0000; stroke:none;fill-rule:evenodd;"
d="M 49.2750,100.4500
49.2750,95.3700
50.7750,95.3700
50.7750,100.4500
Z" /> 
<path style="fill:#C83434; fill-opacity:1.0000; stroke:none;fill-rule:evenodd;"
d="M 53.5250,100.4500
53.5250,95.3700
55.0250,95.3700
55.0250,100.4500
Z" /> 
<path style="fill:#C83434; fill-opacity:1.0000; stroke:none;fill-rule:evenodd;"
d="M 45.0250,100.4500
45.0250,95.3700
46.5250,95.3700
46.5250,100.4500
Z" /> 
</g>
<g style="fill:#C83434; fill-opacity:1.0000; stroke:none;">
<circle cx="44.3250" cy="34.6450" r="0.3000" /> 
<circle cx="46.6050" cy="34.6450" r="0.3000" /> 
<circle cx="48.8850" cy="34.6450" r="0.3000" /> 
<circle cx="51.1650" cy="34.6450" r="0.3000" /> 
<circle cx="53.4450" cy="34.6450" r="0.3000" /> 
<circle cx="55.7250" cy="34.6450" r="0.3000" /> 
<path style="fill:#C83434; fill-opacity:1.0000; stroke:none;fill-rule:evenodd;"
d="M 63.0250,34.9450
37.0250,34.9450
37.0250,28.5950
63.0250,28.5950
Z" /> 
<path style="fill:#C83434; fill-opacity:1.0000; stroke:none;fill-rule:evenodd;"
d="M 63.0250,27.2950
37.0250,27.2950
37.0250,0.5250
63.0250,0.5250
Z" /> 
<circle cx="50.0250" cy="27.9450" r="0.4000" /> 
<circle cx="48.0250" cy="73.4100" r="0.3000" /> 
<circle cx="48.0250" cy="51.4100" r="0.3000" /> 
<circle cx="52.0250" cy="59.4100" r="0.3000" /> 
<circle cx="52.0250" cy="73.4100" r="0.3000" /> 
<circle cx="52.0250" cy="91.4100" r="0.3000" /> 
<circle cx="48.0250" cy="85.4100" r="0.3000" /> 
<circle cx="48.0250" cy="63.4100" r="0.3000" /> 
<circle cx="54.0250" cy="99.4100" r="0.3000" /> 
<circle cx="48.0250" cy="91.4100" r="0.3000" /> 
<circle cx="52.0250" cy="63.4100" r="0.3000" /> 
<circle cx="52.0250" cy="51.4100" r="0.3000" /> 
<circle cx="52.0250" cy="81.4100" r="0.3000" /> 
<circle cx="52.0250" cy="79.4100" r="0.3000" /> 
<circle cx="48.0250" cy="45.4100" r="0.3000" /> 
<circle cx="48.0250" cy="55.4100" r="0.3000" /> 
<circle cx="52.0250" cy="49.4100" r="0.3000" /> 
<circle cx="52.0250" cy="67.4100" r="0.3000" /> 
<circle cx="52.0250" cy="53.4100" r="0.3000" /> 
<circle cx="52.0250" cy="47.4100" r="0.3000" /> 
<circle cx="52.0250" cy="55.4100" r="0.3000" /> 
<circle cx="48.0250" cy="61.4100" r="0.3000" /> 
<circle cx="48.0250" cy="65.4100" r="0.3000" /> 
<circle cx="48.0250" cy="71.4100" r="0.3000" /> 
<circle cx="48.0250" cy="47.4100" r="0.3000" /> 
<circle cx="48.0250" cy="83.4100" r="0.3000" /> 
<circle cx="48.0250" cy="75.4100" r="0.3000" /> 
<circle cx="48.0250" cy="59.4100" r="0.3000" /> 
<circle cx="52.0250" cy="89.4100" r="0.3000" /> 
<circle cx="52.0250" cy="71.4100" r="0.3000" /> 
<circle cx="48.0250" cy="69.4100" r="0.3000" /> 
<circle cx="52.0250" cy="45.4100" r="0.3000" /> 
<circle cx="48.0250" cy="77.4100" r="0.3000" /> 
<circle cx="51.1425" cy="36.6600" r="0.3000" /> 
<circle cx="48.0250" cy="57.4100" r="0.3000" /> 
<circle cx="52.0250" cy="61.4100" r="0.3000" /> 
<circle cx="52.0250" cy="85.4100" r="0.3000" /> 
<circle cx="46.0250" cy="99.4100" r="0.3000" /> 
<circle cx="48.0250" cy="53.4100" r="0.3000" /> 
<circle cx="48.0250" cy="79.4100" r="0.3000" /> 
<circle cx="52.0250" cy="65.4100" r="0.3000" /> 
<circle cx="51.1750" cy="41.1850" r="0.3000" /> 
<circle cx="48.0250" cy="89.4100" r="0.3000" /> 
<circle cx="52.0250" cy="57.4100" r="0.3000" /> 
<circle cx="54.0250" cy="96.4100" r="0.3000" /> 
<circle cx="52.0250" cy="69.4100" r="0.3000" /> 
<circle cx="48.0250" cy="67.4100" r="0.3000" /> 
<circle cx="48.0250" cy="87.4100" r="0.3000" /> 
<circle cx="46.0250" cy="96.4100" r="0.3000" /> 
<circle cx="52.0250" cy="75.4100" r="0.3000" /> 
<circle cx="48.0250" cy="81.4100" r="0.3000" /> 
<circle cx="52.0250" cy="93.4100" r="0.3000" /> 
<circle cx="48.0250" cy="93.4100" r="0.3000" /> 
<circle cx="52.0250" cy="87.4100" r="0.3000" /> 
<circle cx="48.0250" cy="49.4100" r="0.3000" /> 
<circle cx="52.0250" cy="83.4100" r="0.3000" /> 
<circle cx="52.0250" cy="77.4100" r="0.3000" /> 
</g>
<g style="fill:none; 
stroke:#C83434; stroke-width:0.5000; stroke-opacity:1; 
stroke-linecap:round; stroke-linejoin:round;">
<path d="M50.0075 36.6600
L50.0075 38.2750
" />
</g>
<g style="fill:none; 
stroke:#C83434; stroke-width:0.2000; stroke-opacity:1; 
stroke-linecap:round; stroke-linejoin:round;">
<path d="M50.0075 38.2750
L50.0250 38.2925
" />
</g>
<g style="fill:none; 
stroke:#C83434; stroke-width:0.5000; stroke-opacity:1; 
stroke-linecap:round; stroke-linejoin:round;">
<path d="M50.0250 27.9450
L50.0250 31.7700
" />
<path d="M50.0075 36.6600
L50.0075 31.7875
" />
</g>
<g style="fill:none; 
stroke:#C83434; stroke-width:0.2000; stroke-opacity:1; 
stroke-linecap:round; stroke-linejoin:round;">
<path d="M50.0075 31.7875
L50.0250 31.7700
" />
<path d="M50.0250 41.1775
L50.0325 41.1850
" />
<path d="M50.0075 39.3100
L49.9750 39.3425
" />
</g>
<g style="fill:none; 
stroke:#C83434; stroke-width:0.5000; stroke-opacity:1; 
stroke-linecap:round; stroke-linejoin:round;">
<path d="M50.0250 39.4275
L50.0250 41.1775
" />
</g>
<g style="fill:none; 
stroke:#C83434; stroke-width:3.0000; stroke-opacity:1; 
stroke-linecap:round; stroke-linejoin:round;">
<path d="M50.0250 93.4100
L50.0250 47.1800
" />
<path style="fill:#4D7FC4; fill-opacity:1.0000; stroke:none;fill-rule:evenodd;"
d="M 0.0250,34.3698
100.0250,34.3698
100.0250,100.4100
0.0250,100.4100
Z" /> 
<path style="fill:#4D7FC4; fill-opacity:1.0000; stroke:none;fill-rule:evenodd;"
d="M 53.5250,100.4500
53.5250,95.3700
55.0250,95.3700
55.0250,100.4500
Z" /> 
<path style="fill:#4D7FC4; fill-opacity:1.0000; stroke:none;fill-rule:evenodd;"
d="M 45.0250,100.4500
45.0250,95.3700
46.5250,95.3700
46.5250,100.4500
Z" /> 
</g>
<g style="fill:#4D7FC4; fill-opacity:1.0000; stroke:none;">
<circle cx="44.3250" cy="34.6450" r="0.3000" /> 
<circle cx="46.6050" cy="34.6450" r="0.3000" /> 
<circle cx="48.8850" cy="34.6450" r="0.3000" /> 
<circle cx="51.1650" cy="34.6450" r="0.3000" /> 
<circle cx="53.4450" cy="34.6450" r="0.3000" /> 
<circle cx="55.7250" cy="34.6450" r="0.3000" /> 
<circle cx="50.0250" cy="27.9450" r="0.4000" /> 
<circle cx="48.0250" cy="73.4100" r="0.3000" /> 
<circle cx="48.0250" cy="51.4100" r="0.3000" /> 
<circle cx="52.0250" cy="59.4100" r="0.3000" /> 
<circle cx="52.0250" cy="73.4100" r="0.3000" /> 
<circle cx="52.0250" cy="91.4100" r="0.3000" /> 
<circle cx="48.0250" cy="85.4100" r="0.3000" /> 
<circle cx="48.0250" cy="63.4100" r="0.3000" /> 
<circle cx="54.0250" cy="99.4100" r="0.3000" /> 
<circle cx="48.0250" cy="91.4100" r="0.3000" /> 
<circle cx="52.0250" cy="63.4100" r="0.3000" /> 
<circle cx="52.0250" cy="51.4100" r="0.3000" /> 
<circle cx="52.0250" cy="81.4100" r="0.3000" /> 
<circle cx="52.0250" cy="79.4100" r="0.3000" /> 
<circle cx="48.0250" cy="45.4100" r="0.3000" /> 
<circle cx="48.0250" cy="55.4100" r="0.3000" /> 
<circle cx="52.0250" cy="49.4100" r="0.3000" /> 
<circle cx="52.0250" cy="67.4100" r="0.3000" /> 
<circle cx="52.0250" cy="53.4100" r="0.3000" /> 
<circle cx="52.0250" cy="47.4100" r="0.3000" /> 
<circle cx="52.0250" cy="55.4100" r="0.3000" /> 
<circle cx="48.0250" cy="61.4100" r="0.3000" /> 
<circle cx="48.0250" cy="65.4100" r="0.3000" /> 
<circle cx="48.0250" cy="71.4100" r="0.3000" /> 
<circle cx="48.0250" cy="47.4100" r="0.3000" /> 
<circle cx="48.0250" cy="83.4100" r="0.3000" /> 
<circle cx="48.0250" cy="75.4100" r="0.3000" /> 
<circle cx="48.0250" cy="59.4100" r="0.3000" /> 
<circle cx="52.0250" cy="89.4100" r="0.3000" /> 
<circle cx="52.0250" cy="71.4100" r="0.3000" /> 
<circle cx="48.0250" cy="69.4100" r="0.3000" /> 
<circle cx="52.0250" cy="45.4100" r="0.3000" /> 
<circle cx="48.0250" cy="77.4100" r="0.3000" /> 
<circle cx="51.1425" cy="36.6600" r="0.3000" /> 
<circle cx="48.0250" cy="57.4100" r="0.3000" /> 
<circle cx="52.0250" cy="61.4100" r="0.3000" /> 
<circle cx="52.0250" cy="85.4100" r="0.3000" /> 
<circle cx="46.0250" cy="99.4100" r="0.3000" /> 
<circle cx="48.0250" cy="53.4100" r="0.3000" /> 
<circle cx="48.0250" cy="79.4100" r="0.3000" /> 
<circle cx="52.0250" cy="65.4100" r="0.3000" /> 
<circle cx="51.1750" cy="41.1850" r="0.3000" /> 
<circle cx="48.0250" cy="89.4100" r="0.3000" /> 
<circle cx="52.0250" cy="57.4100" r="0.3000" /> 
<circle cx="54.0250" cy="96.4100" r="0.3000" /> 
<circle cx="52.0250" cy="69.4100" r="0.3000" /> 
<circle cx="48.0250" cy="67.4100" r="0.3000" /> 
<circle cx="48.0250" cy="87.4100" r="0.3000" /> 
<circle cx="46.0250" cy="96.4100" r="0.3000" /> 
<circle cx="52.0250" cy="75.4100" r="0.3000" /> 
<circle cx="48.0250" cy="81.4100" r="0.3000" /> 
<circle cx="52.0250" cy="93.4100" r="0.3000" /> 
<circle cx="48.0250" cy="93.4100" r="0.3000" /> 
<circle cx="52.0250" cy="87.4100" r="0.3000" /> 
<circle cx="48.0250" cy="49.4100" r="0.3000" /> 
<circle cx="52.0250" cy="83.4100" r="0.3000" /> 
<circle cx="52.0250" cy="77.4100" r="0.3000" /> 
<path style="fill:none; 
stroke:#D0D2CD; stroke-width:0.0500; stroke-opacity:1; 
stroke-linecap:round; stroke-linejoin:round;fill:none"
d="M 0.0250,0.4100
100.0250,0.4100
100.0250,100.4100
0.0250,100.4100
Z" /> 
</g>
<g style="fill:none; 
stroke:#F2EDA1; stroke-width:0.1500; stroke-opacity:1; 
stroke-linecap:round; stroke-linejoin:round;">
<text x="53.4750" y="41.6850"
textLength="2.2024" font-size="1.3333" lengthAdjust="spacingAndGlyphs"
text-anchor="middle" opacity="0" stroke-opacity="0">C1</text>
<g class="stroked-text"><desc>C1</desc>
<path d="M53.3083 41.5446
L53.2607 41.5922
" />
<path d="M53.2607 41.5922
L53.1179 41.6398
" />
<path d="M53.1179 41.6398
L53.0226 41.6398
" />
<path d="M53.0226 41.6398
L52.8798 41.5922
" />
<path d="M52.8798 41.5922
L52.7845 41.4970
" />
<path d="M52.7845 41.4970
L52.7369 41.4017
" />
<path d="M52.7369 41.4017
L52.6893 41.2112
" />
<path d="M52.6893 41.2112
L52.6893 41.0684
" />
<path d="M52.6893 41.0684
L52.7369 40.8779
" />
<path d="M52.7369 40.8779
L52.7845 40.7827
" />
<path d="M52.7845 40.7827
L52.8798 40.6874
" />
<path d="M52.8798 40.6874
L53.0226 40.6398
" />
<path d="M53.0226 40.6398
L53.1179 40.6398
" />
<path d="M53.1179 40.6398
L53.2607 40.6874
" />
<path d="M53.2607 40.6874
L53.3083 40.7351
" />
<path d="M54.2607 41.6398
L53.6893 41.6398
" />
<path d="M53.9750 41.6398
L53.9750 40.6398
" />
<path d="M53.9750 40.6398
L53.8798 40.7827
" />
<path d="M53.8798 40.7827
L53.7845 40.8779
" />
<path d="M53.7845 40.8779
L53.6893 40.9255
" />
</g><text x="53.4000" y="37.1850"
textLength="2.2024" font-size="1.3333" lengthAdjust="spacingAndGlyphs"
text-anchor="middle" opacity="0" stroke-opacity="0">C2</text>
<g class="stroked-text"><desc>C2</desc>
<path d="M53.2333 37.0446
L53.1857 37.0922
" />
<path d="M53.1857 37.0922
L53.0429 37.1398
" />
<path d="M53.0429 37.1398
L52.9476 37.1398
" />
<path d="M52.9476 37.1398
L52.8048 37.0922
" />
<path d="M52.8048 37.0922
L52.7095 36.9970
" />
<path d="M52.7095 36.9970
L52.6619 36.9017
" />
<path d="M52.6619 36.9017
L52.6143 36.7112
" />
<path d="M52.6143 36.7112
L52.6143 36.5684
" />
<path d="M52.6143 36.5684
L52.6619 36.3779
" />
<path d="M52.6619 36.3779
L52.7095 36.2827
" />
<path d="M52.7095 36.2827
L52.8048 36.1874
" />
<path d="M52.8048 36.1874
L52.9476 36.1398
" />
<path d="M52.9476 36.1398
L53.0429 36.1398
" />
<path d="M53.0429 36.1398
L53.1857 36.1874
" />
<path d="M53.1857 36.1874
L53.2333 36.2351
" />
<path d="M53.6143 36.2351
L53.6619 36.1874
" />
<path d="M53.6619 36.1874
L53.7571 36.1398
" />
<path d="M53.7571 36.1398
L53.9952 36.1398
" />
<path d="M53.9952 36.1398
L54.0905 36.1874
" />
<path d="M54.0905 36.1874
L54.1381 36.2351
" />
<path d="M54.1381 36.2351
L54.1857 36.3303
" />
<path d="M54.1857 36.3303
L54.1857 36.4255
" />
<path d="M54.1857 36.4255
L54.1381 36.5684
" />
<path d="M54.1381 36.5684
L53.5667 37.1398
" />
<path d="M53.5667 37.1398
L54.1857 37.1398
" />
</g><text x="48.5750" y="39.3350"
textLength="2.0119" font-size="1.3333" lengthAdjust="spacingAndGlyphs"
text-anchor="middle" opacity="0" stroke-opacity="0">L1</text>
<g class="stroked-text"><desc>L1</desc>
<path d="M48.4083 39.2898
L47.9321 39.2898
" />
<path d="M47.9321 39.2898
L47.9321 38.2898
" />
<path d="M49.2655 39.2898
L48.6940 39.2898
" />
<path d="M48.9798 39.2898
L48.9798 38.2898
" />
<path d="M48.9798 38.2898
L48.8845 38.4327
" />
<path d="M48.8845 38.4327
L48.7893 38.5279
" />
<path d="M48.7893 38.5279
L48.6940 38.5755
" />
</g><text x="53.0250" y="94.4500"
textLength="1.9643" font-size="1.3333" lengthAdjust="spacingAndGlyphs"
text-anchor="middle" opacity="0" stroke-opacity="0">J1</text>
<g class="stroked-text"><desc>J1</desc>
<path d="M52.6917 93.4048
L52.6917 94.1191
" />
<path d="M52.6917 94.1191
L52.6440 94.2620
" />
<path d="M52.6440 94.2620
L52.5488 94.3572
" />
<path d="M52.5488 94.3572
L52.4060 94.4048
" />
<path d="M52.4060 94.4048
L52.3107 94.4048
" />
<path d="M53.6917 94.4048
L53.1202 94.4048
" />
<path d="M53.4060 94.4048
L53.4060 93.4048
" />
<path d="M53.4060 93.4048
L53.3107 93.5477
" />
<path d="M53.3107 93.5477
L53.2155 93.6429
" />
<path d="M53.2155 93.6429
L53.1202 93.6905
" />
</g><g transform="rotate(-90.000000 35.0250 17.7350)">
<text x="35.0250" y="18.2350"
textLength="2.9643" font-size="1.3333" lengthAdjust="spacingAndGlyphs"
text-anchor="middle" opacity="0" stroke-opacity="0">AE1</text>
</g>
<g class="stroked-text"><desc>AE1</desc>
<path d="M35.1941 18.9017
L35.1941 18.4255
" />
<path d="M35.4798 18.9969
L34.4798 18.6636
" />
<path d="M34.4798 18.6636
L35.4798 18.3302
" />
<path d="M34.9560 17.9969
L34.9560 17.6636
" />
<path d="M35.4798 17.5207
L35.4798 17.9969
" />
<path d="M35.4798 17.9969
L34.4798 17.9969
" />
<path d="M34.4798 17.9969
L34.4798 17.5207
" />
<path d="M35.4798 16.5683
L35.4798 17.1398
" />
<path d="M35.4798 16.8540
L34.4798 16.8540
" />
<path d="M34.4798 16.8540
L34.6227 16.9493
" />
<path d="M34.6227 16.9493
L34.7179 17.0445
" />
<path d="M34.7179 17.0445
L34.7655 17.1398
" />
</g></g>
<g style="fill:none; 
stroke:#F2EDA1; stroke-width:0.1200; stroke-opacity:1; 
stroke-linecap:round; stroke-linejoin:round;">
<path d="M50.4842 40.8250
L50.7158 40.8250
" />
<path d="M50.4842 41.5450
L50.7158 41.5450
" />
<path d="M50.4592 36.3000
L50.6908 36.3000
" />
<path d="M50.4592 37.0200
L50.6908 37.0200
" />
<path d="M49.6650 38.9758
L49.6650 38.7442
" />
<path d="M50.3850 38.9758
L50.3850 38.7442
" />
<path d="M49.7750 94.2000
L50.0250 94.7000
" />
<path d="M50.0250 94.7000
L50.2750 94.2000
" />
<path d="M50.2750 94.2000
L49.7750 94.2000
" />
<path style="fill:none; 
stroke:#F2EDA1; stroke-width:0.1200; stroke-opacity:1; 
stroke-linecap:round; stroke-linejoin:round;fill:none"
d="M 37.0250,0.5250
63.0250,0.5250
63.0250,34.9450
37.0250,34.9450
Z" /> 
</g>
<g style="fill:none; 
stroke:#AFAFAF; stroke-width:0.1500; stroke-opacity:1; 
stroke-linecap:round; stroke-linejoin:round;">
<text x="48.7000" y="41.6600"
textLength="1.2500" font-size="1.3333" lengthAdjust="spacingAndGlyphs"
text-anchor="middle" opacity="0" stroke-opacity="0">C</text>
<g class="stroked-text"><desc>C</desc>
<path d="M49.0095 41.5196
L48.9619 41.5672
" />
<path d="M48.9619 41.5672
L48.8190 41.6148
" />
<path d="M48.8190 41.6148
L48.7238 41.6148
" />
<path d="M48.7238 41.6148
L48.5810 41.5672
" />
<path d="M48.5810 41.5672
L48.4857 41.4720
" />
<path d="M48.4857 41.4720
L48.4381 41.3767
" />
<path d="M48.4381 41.3767
L48.3905 41.1862
" />
<path d="M48.3905 41.1862
L48.3905 41.0434
" />
<path d="M48.3905 41.0434
L48.4381 40.8529
" />
<path d="M48.4381 40.8529
L48.4857 40.7577
" />
<path d="M48.4857 40.7577
L48.5810 40.6624
" />
<path d="M48.5810 40.6624
L48.7238 40.6148
" />
<path d="M48.7238 40.6148
L48.8190 40.6148
" />
<path d="M48.8190 40.6148
L48.9619 40.6624
" />
<path d="M48.9619 40.6624
L49.0095 40.7101
" />
</g></g>
<g style="fill:none; 
stroke:#AFAFAF; stroke-width:0.0400; stroke-opacity:1; 
stroke-linecap:round; stroke-linejoin:round;">
<text x="50.6000" y="41.3100"
textLength="0.5581" font-size="0.3333" lengthAdjust="spacingAndGlyphs"
text-anchor="middle" opacity="0" stroke-opacity="0">C1</text>
<g class="stroked-text"><desc>C1</desc>
<path d="M50.5583 41.2748
L50.5464 41.2867
" />
<path d="M50.5464 41.2867
L50.5107 41.2986
" />
<path d="M50.5107 41.2986
L50.4869 41.2986
" />
<path d="M50.4869 41.2986
L50.4512 41.2867
" />
<path d="M50.4512 41.2867
L50.4274 41.2629
" />
<path d="M50.4274 41.2629
L50.4155 41.2390
" />
<path d="M50.4155 41.2390
L50.4036 41.1914
" />
<path d="M50.4036 41.1914
L50.4036 41.1557
" />
<path d="M50.4036 41.1557
L50.4155 41.1081
" />
<path d="M50.4155 41.1081
L50.4274 41.0843
" />
<path d="M50.4274 41.0843
L50.4512 41.0605
" />
<path d="M50.4512 41.0605
L50.4869 41.0486
" />
<path d="M50.4869 41.0486
L50.5107 41.0486
" />
<path d="M50.5107 41.0486
L50.5464 41.0605
" />
<path d="M50.5464 41.0605
L50.5583 41.0724
" />
<path d="M50.7964 41.2986
L50.6536 41.2986
" />
<path d="M50.7250 41.2986
L50.7250 41.0486
" />
<path d="M50.7250 41.0486
L50.7012 41.0843
" />
<path d="M50.7012 41.0843
L50.6774 41.1081
" />
<path d="M50.6774 41.1081
L50.6536 41.1200
" />
</g></g>
<g style="fill:none; 
stroke:#AFAFAF; stroke-width:0.1500; stroke-opacity:1; 
stroke-linecap:round; stroke-linejoin:round;">
<text x="48.6500" y="37.0850"
textLength="1.2500" font-size="1.3333" lengthAdjust="spacingAndGlyphs"
text-anchor="middle" opacity="0" stroke-opacity="0">C</text>
<g class="stroked-text"><desc>C</desc>
<path d="M48.9595 36.9446
L48.9119 36.9922
" />
<path d="M48.9119 36.9922
L48.7690 37.0398
" />
<path d="M48.7690 37.0398
L48.6738 37.0398
" />
<path d="M48.6738 37.0398
L48.5310 36.9922
" />
<path d="M48.5310 36.9922
L48.4357 36.8970
" />
<path d="M48.4357 36.8970
L48.3881 36.8017
" />
<path d="M48.3881 36.8017
L48.3405 36.6112
" />
<path d="M48.3405 36.6112
L48.3405 36.4684
" />
<path d="M48.3405 36.4684
L48.3881 36.2779
" />
<path d="M48.3881 36.2779
L48.4357 36.1827
" />
<path d="M48.4357 36.1827
L48.5310 36.0874
" />
<path d="M48.5310 36.0874
L48.6738 36.0398
" />
<path d="M48.6738 36.0398
L48.7690 36.0398
" />
<path d="M48.7690 36.0398
L48.9119 36.0874
" />
<path d="M48.9119 36.0874
L48.9595 36.1351
" />
</g></g>
<g style="fill:none; 
stroke:#AFAFAF; stroke-width:0.0400; stroke-opacity:1; 
stroke-linecap:round; stroke-linejoin:round;">
<text x="49.6425" y="36.7850"
textLength="0.5581" font-size="0.3333" lengthAdjust="spacingAndGlyphs"
text-anchor="middle" opacity="0" stroke-opacity="0">C2</text>
<g class="stroked-text"><desc>C2</desc>
<path d="M49.6008 36.7498
L49.5889 36.7617
" />
<path d="M49.5889 36.7617
L49.5532 36.7736
" />
<path d="M49.5532 36.7736
L49.5294 36.7736
" />
<path d="M49.5294 36.7736
L49.4937 36.7617
" />
<path d="M49.4937 36.7617
L49.4699 36.7379
" />
<path d="M49.4699 36.7379
L49.4580 36.7141
" />
<path d="M49.4580 36.7141
L49.4461 36.6664
" />
<path d="M49.4461 36.6664
L49.4461 36.6307
" />
<path d="M49.4461 36.6307
L49.4580 36.5831
" />
<path d="M49.4580 36.5831
L49.4699 36.5593
" />
<path d="M49.4699 36.5593
L49.4937 36.5355
" />
<path d="M49.4937 36.5355
L49.5294 36.5236
" />
<path d="M49.5294 36.5236
L49.5532 36.5236
" />
<path d="M49.5532 36.5236
L49.5889 36.5355
" />
<path d="M49.5889 36.5355
L49.6008 36.5474
" />
<path d="M49.6961 36.5474
L49.7080 36.5355
" />
<path d="M49.7080 36.5355
L49.7318 36.5236
" />
<path d="M49.7318 36.5236
L49.7913 36.5236
" />
<path d="M49.7913 36.5236
L49.8151 36.5355
" />
<path d="M49.8151 36.5355
L49.8270 36.5474
" />
<path d="M49.8270 36.5474
L49.8389 36.5712
" />
<path d="M49.8389 36.5712
L49.8389 36.5950
" />
<path d="M49.8389 36.5950
L49.8270 36.6307
" />
<path d="M49.8270 36.6307
L49.6842 36.7736
" />
<path d="M49.6842 36.7736
L49.8389 36.7736
" />
</g></g>
<g style="fill:none; 
stroke:#AFAFAF; stroke-width:0.1500; stroke-opacity:1; 
stroke-linecap:round; stroke-linejoin:round;">
<text x="51.1000" y="39.3600"
textLength="1.0595" font-size="1.3333" lengthAdjust="spacingAndGlyphs"
text-anchor="middle" opacity="0" stroke-opacity="0">L</text>
<g class="stroked-text"><desc>L</desc>
<path d="M51.4095 39.3148
L50.9333 39.3148
" />
<path d="M50.9333 39.3148
L50.9333 38.3148
" />
</g></g>
<g style="fill:none; 
stroke:#AFAFAF; stroke-width:0.0400; stroke-opacity:1; 
stroke-linecap:round; stroke-linejoin:round;">
<g transform="rotate(-90.000000 50.0250 38.8600)">
<text x="50.0250" y="38.9850"
textLength="0.5105" font-size="0.3333" lengthAdjust="spacingAndGlyphs"
text-anchor="middle" opacity="0" stroke-opacity="0">L1</text>
</g>
<g class="stroked-text"><desc>L1</desc>
<path d="M50.1386 38.9017
L50.1386 39.0207
" />
<path d="M50.1386 39.0207
L49.8886 39.0207
" />
<path d="M50.1386 38.6874
L50.1386 38.8302
" />
<path d="M50.1386 38.7588
L49.8886 38.7588
" />
<path d="M49.8886 38.7588
L49.9243 38.7826
" />
<path d="M49.9243 38.7826
L49.9481 38.8064
" />
<path d="M49.9481 38.8064
L49.9600 38.8302
" />
</g></g>
<g style="fill:none; 
stroke:#AFAFAF; stroke-width:0.1500; stroke-opacity:1; 
stroke-linecap:round; stroke-linejoin:round;">
<g transform="rotate(-90.000000 44.0250 102.9100)">
<text x="44.0250" y="103.4100"
textLength="15.2500" font-size="1.3333" lengthAdjust="spacingAndGlyphs"
text-anchor="middle" opacity="0" stroke-opacity="0">Conn_Coaxial_Small</text>
</g>
<g class="stroked-text"><desc>Conn_Coaxial_Small</desc>
<path d="M44.3846 109.6005
L44.4322 109.6481
" />
<path d="M44.4322 109.6481
L44.4798 109.7910
" />
<path d="M44.4798 109.7910
L44.4798 109.8862
" />
<path d="M44.4798 109.8862
L44.4322 110.0290
" />
<path d="M44.4322 110.0290
L44.3370 110.1243
" />
<path d="M44.3370 110.1243
L44.2417 110.1719
" />
<path d="M44.2417 110.1719
L44.0512 110.2195
" />
<path d="M44.0512 110.2195
L43.9084 110.2195
" />
<path d="M43.9084 110.2195
L43.7179 110.1719
" />
<path d="M43.7179 110.1719
L43.6227 110.1243
" />
<path d="M43.6227 110.1243
L43.5274 110.0290
" />
<path d="M43.5274 110.0290
L43.4798 109.8862
" />
<path d="M43.4798 109.8862
L43.4798 109.7910
" />
<path d="M43.4798 109.7910
L43.5274 109.6481
" />
<path d="M43.5274 109.6481
L43.5751 109.6005
" />
<path d="M44.4798 109.0290
L44.4322 109.1243
" />
<path d="M44.4322 109.1243
L44.3846 109.1719
" />
<path d="M44.3846 109.1719
L44.2893 109.2195
" />
<path d="M44.2893 109.2195
L44.0036 109.2195
" />
<path d="M44.0036 109.2195
L43.9084 109.1719
" />
<path d="M43.9084 109.1719
L43.8608 109.1243
" />
<path d="M43.8608 109.1243
L43.8132 109.0290
" />
<path d="M43.8132 109.0290
L43.8132 108.8862
" />
<path d="M43.8132 108.8862
L43.8608 108.7910
" />
<path d="M43.8608 108.7910
L43.9084 108.7433
" />
<path d="M43.9084 108.7433
L44.0036 108.6957
" />
<path d="M44.0036 108.6957
L44.2893 108.6957
" />
<path d="M44.2893 108.6957
L44.3846 108.7433
" />
<path d="M44.3846 108.7433
L44.4322 108.7910
" />
<path d="M44.4322 108.7910
L44.4798 108.8862
" />
<path d="M44.4798 108.8862
L44.4798 109.0290
" />
<path d="M43.8132 108.2671
L44.4798 108.2671
" />
<path d="M43.9084 108.2671
L43.8608 108.2195
" />
<path d="M43.8608 108.2195
L43.8132 108.1243
" />
<path d="M43.8132 108.1243
L43.8132 107.9814
" />
<path d="M43.8132 107.9814
L43.8608 107.8862
" />
<path d="M43.8608 107.8862
L43.9560 107.8386
" />
<path d="M43.9560 107.8386
L44.4798 107.8386
" />
<path d="M43.8132 107.3624
L44.4798 107.3624
" />
<path d="M43.9084 107.3624
L43.8608 107.3148
" />
<path d="M43.8608 107.3148
L43.8132 107.2195
" />
<path d="M43.8132 107.2195
L43.8132 107.0767
" />
<path d="M43.8132 107.0767
L43.8608 106.9814
" />
<path d="M43.8608 106.9814
L43.9560 106.9338
" />
<path d="M43.9560 106.9338
L44.4798 106.9338
" />
<path d="M44.5751 106.6957
L44.5751 105.9338
" />
<path d="M44.3846 105.1243
L44.4322 105.1719
" />
<path d="M44.4322 105.1719
L44.4798 105.3148
" />
<path d="M44.4798 105.3148
L44.4798 105.4100
" />
<path d="M44.4798 105.4100
L44.4322 105.5529
" />
<path d="M44.4322 105.5529
L44.3370 105.6481
" />
<path d="M44.3370 105.6481
L44.2417 105.6957
" />
<path d="M44.2417 105.6957
L44.0512 105.7433
" />
<path d="M44.0512 105.7433
L43.9084 105.7433
" />
<path d="M43.9084 105.7433
L43.7179 105.6957
" />
<path d="M43.7179 105.6957
L43.6227 105.6481
" />
<path d="M43.6227 105.6481
L43.5274 105.5529
" />
<path d="M43.5274 105.5529
L43.4798 105.4100
" />
<path d="M43.4798 105.4100
L43.4798 105.3148
" />
<path d="M43.4798 105.3148
L43.5274 105.1719
" />
<path d="M43.5274 105.1719
L43.5751 105.1243
" />
<path d="M44.4798 104.5529
L44.4322 104.6481
" />
<path d="M44.4322 104.6481
L44.3846 104.6957
" />
<path d="M44.3846 104.6957
L44.2893 104.7433
" />
<path d="M44.2893 104.7433
L44.0036 104.7433
" />
<path d="M44.0036 104.7433
L43.9084 104.6957
" />
<path d="M43.9084 104.6957
L43.8608 104.6481
" />
<path d="M43.8608 104.6481
L43.8132 104.5529
" />
<path d="M43.8132 104.5529
L43.8132 104.4100
" />
<path d="M43.8132 104.4100
L43.8608 104.3148
" />
<path d="M43.8608 104.3148
L43.9084 104.2671
" />
<path d="M43.9084 104.2671
L44.0036 104.2195
" />
<path d="M44.0036 104.2195
L44.2893 104.2195
" />
<path d="M44.2893 104.2195
L44.3846 104.2671
" />
<path d="M44.3846 104.2671
L44.4322 104.3148
" />
<path d="M44.4322 104.3148
L44.4798 104.4100
" />
<path d="M44.4798 104.4100
L44.4798 104.5529
" />
<path d="M44.4798 103.3624
L43.9560 103.3624
" />
<path d="M43.9560 103.3624
L43.8608 103.4100
" />
<path d="M43.8608 103.4100
L43.8132 103.5052
" />
<path d="M43.8132 103.5052
L43.8132 103.6957
" />
<path d="M43.8132 103.6957
L43.8608 103.7910
" />
<path d="M44.4322 103.3624
L44.4798 103.4576
" />
<path d="M44.4798 103.4576
L44.4798 103.6957
" />
<path d="M44.4798 103.6957
L44.4322 103.7910
" />
<path d="M44.4322 103.7910
L44.3370 103.8386
" />
<path d="M44.3370 103.8386
L44.2417 103.8386
" />
<path d="M44.2417 103.8386
L44.1465 103.7910
" />
<path d="M44.1465 103.7910
L44.0989 103.6957
" />
<path d="M44.0989 103.6957
L44.0989 103.4576
" />
<path d="M44.0989 103.4576
L44.0512 103.3624
" />
<path d="M44.4798 102.9814
L43.8132 102.4576
" />
<path d="M43.8132 102.9814
L44.4798 102.4576
" />
<path d="M44.4798 102.0767
L43.8132 102.0767
" />
<path d="M43.4798 102.0767
L43.5274 102.1243
" />
<path d="M43.5274 102.1243
L43.5751 102.0767
" />
<path d="M43.5751 102.0767
L43.5274 102.0290
" />
<path d="M43.5274 102.0290
L43.4798 102.0767
" />
<path d="M43.4798 102.0767
L43.5751 102.0767
" />
<path d="M44.4798 101.1719
L43.9560 101.1719
" />
<path d="M43.9560 101.1719
L43.8608 101.2195
" />
<path d="M43.8608 101.2195
L43.8132 101.3148
" />
<path d="M43.8132 101.3148
L43.8132 101.5052
" />
<path d="M43.8132 101.5052
L43.8608 101.6005
" />
<path d="M44.4322 101.1719
L44.4798 101.2671
" />
<path d="M44.4798 101.2671
L44.4798 101.5052
" />
<path d="M44.4798 101.5052
L44.4322 101.6005
" />
<path d="M44.4322 101.6005
L44.3370 101.6481
" />
<path d="M44.3370 101.6481
L44.2417 101.6481
" />
<path d="M44.2417 101.6481
L44.1465 101.6005
" />
<path d="M44.1465 101.6005
L44.0989 101.5052
" />
<path d="M44.0989 101.5052
L44.0989 101.2671
" />
<path d="M44.0989 101.2671
L44.0512 101.1719
" />
<path d="M44.4798 100.5529
L44.4322 100.6481
" />
<path d="M44.4322 100.6481
L44.3370 100.6957
" />
<path d="M44.3370 100.6957
L43.4798 100.6957
" />
<path d="M44.5751 100.4100
L44.5751 99.6481
" />
<path d="M44.4322 99.4576
L44.4798 99.3148
" />
<path d="M44.4798 99.3148
L44.4798 99.0767
" />
<path d="M44.4798 99.0767
L44.4322 98.9814
" />
<path d="M44.4322 98.9814
L44.3846 98.9338
" />
<path d="M44.3846 98.9338
L44.2893 98.8862
" />
<path d="M44.2893 98.8862
L44.1941 98.8862
" />
<path d="M44.1941 98.8862
L44.0989 98.9338
" />
<path d="M44.0989 98.9338
L44.0512 98.9814
" />
<path d="M44.0512 98.9814
L44.0036 99.0767
" />
<path d="M44.0036 99.0767
L43.9560 99.2671
" />
<path d="M43.9560 99.2671
L43.9084 99.3624
" />
<path d="M43.9084 99.3624
L43.8608 99.4100
" />
<path d="M43.8608 99.4100
L43.7655 99.4576
" />
<path d="M43.7655 99.4576
L43.6703 99.4576
" />
<path d="M43.6703 99.4576
L43.5751 99.4100
" />
<path d="M43.5751 99.4100
L43.5274 99.3624
" />
<path d="M43.5274 99.3624
L43.4798 99.2671
" />
<path d="M43.4798 99.2671
L43.4798 99.0290
" />
<path d="M43.4798 99.0290
L43.5274 98.8862
" />
<path d="M44.4798 98.4576
L43.8132 98.4576
" />
<path d="M43.9084 98.4576
L43.8608 98.4100
" />
<path d="M43.8608 98.4100
L43.8132 98.3148
" />
<path d="M43.8132 98.3148
L43.8132 98.1719
" />
<path d="M43.8132 98.1719
L43.8608 98.0767
" />
<path d="M43.8608 98.0767
L43.9560 98.0290
" />
<path d="M43.9560 98.0290
L44.4798 98.0290
" />
<path d="M43.9560 98.0290
L43.8608 97.9814
" />
<path d="M43.8608 97.9814
L43.8132 97.8862
" />
<path d="M43.8132 97.8862
L43.8132 97.7433
" />
<path d="M43.8132 97.7433
L43.8608 97.6481
" />
<path d="M43.8608 97.6481
L43.9560 97.6005
" />
<path d="M43.9560 97.6005
L44.4798 97.6005
" />
<path d="M44.4798 96.6957
L43.9560 96.6957
" />
<path d="M43.9560 96.6957
L43.8608 96.7433
" />
<path d="M43.8608 96.7433
L43.8132 96.8386
" />
<path d="M43.8132 96.8386
L43.8132 97.0290
" />
<path d="M43.8132 97.0290
L43.8608 97.1243
" />
<path d="M44.4322 96.6957
L44.4798 96.7910
" />
<path d="M44.4798 96.7910
L44.4798 97.0290
" />
<path d="M44.4798 97.0290
L44.4322 97.1243
" />
<path d="M44.4322 97.1243
L44.3370 97.1719
" />
<path d="M44.3370 97.1719
L44.2417 97.1719
" />
<path d="M44.2417 97.1719
L44.1465 97.1243
" />
<path d="M44.1465 97.1243
L44.0989 97.0290
" />
<path d="M44.0989 97.0290
L44.0989 96.7910
" />
<path d="M44.0989 96.7910
L44.0512 96.6957
" />
<path d="M44.4798 96.0767
L44.4322 96.1719
" />
<path d="M44.4322 96.1719
L44.3370 96.2195
" />
<path d="M44.3370 96.2195
L43.4798 96.2195
" />
<path d="M44.4798 95.5529
L44.4322 95.6481
" />
<path d="M44.4322 95.6481
L44.3370 95.6957
" />
<path d="M44.3370 95.6957
L43.4798 95.6957
" />
</g><text x="50.0250" y="103.2000"
textLength="1.9643" font-size="1.3333" lengthAdjust="spacingAndGlyphs"
text-anchor="middle" opacity="0" stroke-opacity="0">J1</text>
<g class="stroked-text"><desc>J1</desc>
<path d="M49.6917 102.1548
L49.6917 102.8691
" />
<path d="M49.6917 102.8691
L49.6440 103.0120
" />
<path d="M49.6440 103.0120
L49.5488 103.1072
" />
<path d="M49.5488 103.1072
L49.4060 103.1548
" />
<path d="M49.4060 103.1548
L49.3107 103.1548
" />
<path d="M50.6917 103.1548
L50.1202 103.1548
" />
<path d="M50.4060 103.1548
L50.4060 102.1548
" />
<path d="M50.4060 102.1548
L50.3107 102.2977
" />
<path d="M50.3107 102.2977
L50.2155 102.3929
" />
<path d="M50.2155 102.3929
L50.1202 102.4405
" />
</g><g transform="rotate(-90.000000 65.0250 17.7350)">
<text x="65.0250" y="18.2350"
textLength="6.1548" font-size="1.3333" lengthAdjust="spacingAndGlyphs"
text-anchor="middle" opacity="0" stroke-opacity="0">Antenna</text>
</g>
<g class="stroked-text"><desc>Antenna</desc>
<path d="M65.1941 20.4969
L65.1941 20.0207
" />
<path d="M65.4798 20.5921
L64.4798 20.2588
" />
<path d="M64.4798 20.2588
L65.4798 19.9255
" />
<path d="M64.8132 19.5921
L65.4798 19.5921
" />
<path d="M64.9084 19.5921
L64.8608 19.5445
" />
<path d="M64.8608 19.5445
L64.8132 19.4493
" />
<path d="M64.8132 19.4493
L64.8132 19.3064
" />
<path d="M64.8132 19.3064
L64.8608 19.2112
" />
<path d="M64.8608 19.2112
L64.9560 19.1636
" />
<path d="M64.9560 19.1636
L65.4798 19.1636
" />
<path d="M64.8132 18.8302
L64.8132 18.4493
" />
<path d="M64.4798 18.6874
L65.3370 18.6874
" />
<path d="M65.3370 18.6874
L65.4322 18.6398
" />
<path d="M65.4322 18.6398
L65.4798 18.5445
" />
<path d="M65.4798 18.5445
L65.4798 18.4493
" />
<path d="M65.4322 17.7350
L65.4798 17.8302
" />
<path d="M65.4798 17.8302
L65.4798 18.0207
" />
<path d="M65.4798 18.0207
L65.4322 18.1160
" />
<path d="M65.4322 18.1160
L65.3370 18.1636
" />
<path d="M65.3370 18.1636
L64.9560 18.1636
" />
<path d="M64.9560 18.1636
L64.8608 18.1160
" />
<path d="M64.8608 18.1160
L64.8132 18.0207
" />
<path d="M64.8132 18.0207
L64.8132 17.8302
" />
<path d="M64.8132 17.8302
L64.8608 17.7350
" />
<path d="M64.8608 17.7350
L64.9560 17.6874
" />
<path d="M64.9560 17.6874
L65.0512 17.6874
" />
<path d="M65.0512 17.6874
L65.1465 18.1636
" />
<path d="M64.8132 17.2588
L65.4798 17.2588
" />
<path d="M64.9084 17.2588
L64.8608 17.2112
" />
<path d="M64.8608 17.2112
L64.8132 17.1160
" />
<path d="M64.8132 17.1160
L64.8132 16.9731
" />
<path d="M64.8132 16.9731
L64.8608 16.8779
" />
<path d="M64.8608 16.8779
L64.9560 16.8302
" />
<path d="M64.9560 16.8302
L65.4798 16.8302
" />
<path d="M64.8132 16.3540
L65.4798 16.3540
" />
<path d="M64.9084 16.3540
L64.8608 16.3064
" />
<path d="M64.8608 16.3064
L64.8132 16.2112
" />
<path d="M64.8132 16.2112
L64.8132 16.0683
" />
<path d="M64.8132 16.0683
L64.8608 15.9731
" />
<path d="M64.8608 15.9731
L64.9560 15.9255
" />
<path d="M64.9560 15.9255
L65.4798 15.9255
" />
<path d="M65.4798 15.0207
L64.9560 15.0207
" />
<path d="M64.9560 15.0207
L64.8608 15.0683
" />
<path d="M64.8608 15.0683
L64.8132 15.1636
" />
<path d="M64.8132 15.1636
L64.8132 15.3540
" />
<path d="M64.8132 15.3540
L64.8608 15.4493
" />
<path d="M65.4322 15.0207
L65.4798 15.1160
" />
<path d="M65.4798 15.1160
L65.4798 15.3540
" />
<path d="M65.4798 15.3540
L65.4322 15.4493
" />
<path d="M65.4322 15.4493
L65.3370 15.4969
" />
<path d="M65.3370 15.4969
L65.2417 15.4969
" />
<path d="M65.2417 15.4969
L65.1465 15.4493
" />
<path d="M65.1465 15.4493
L65.0989 15.3540
" />
<path d="M65.0989 15.3540
L65.0989 15.1160
" />
<path d="M65.0989 15.1160
L65.0512 15.0207
" />
</g></g>
<g style="fill:none; 
stroke:#AFAFAF; stroke-width:0.1200; stroke-opacity:1; 
stroke-linecap:round; stroke-linejoin:round;">
<text x="42.4250" y="37.0350"
textLength="7.7048" font-size="1.0667" lengthAdjust="spacingAndGlyphs"
text-anchor="middle" opacity="0" stroke-opacity="0">SHORT EDGE</text>
<g class="stroked-text"><desc>SHORT EDGE</desc>
<path d="M38.8250 36.9608
L38.9393 36.9989
" />
<path d="M38.9393 36.9989
L39.1298 36.9989
" />
<path d="M39.1298 36.9989
L39.2060 36.9608
" />
<path d="M39.2060 36.9608
L39.2440 36.9227
" />
<path d="M39.2440 36.9227
L39.2821 36.8465
" />
<path d="M39.2821 36.8465
L39.2821 36.7703
" />
<path d="M39.2821 36.7703
L39.2440 36.6941
" />
<path d="M39.2440 36.6941
L39.2060 36.6560
" />
<path d="M39.2060 36.6560
L39.1298 36.6179
" />
<path d="M39.1298 36.6179
L38.9774 36.5798
" />
<path d="M38.9774 36.5798
L38.9012 36.5417
" />
<path d="M38.9012 36.5417
L38.8631 36.5036
" />
<path d="M38.8631 36.5036
L38.8250 36.4274
" />
<path d="M38.8250 36.4274
L38.8250 36.3512
" />
<path d="M38.8250 36.3512
L38.8631 36.2750
" />
<path d="M38.8631 36.2750
L38.9012 36.2370
" />
<path d="M38.9012 36.2370
L38.9774 36.1989
" />
<path d="M38.9774 36.1989
L39.1679 36.1989
" />
<path d="M39.1679 36.1989
L39.2821 36.2370
" />
<path d="M39.6250 36.9989
L39.6250 36.1989
" />
<path d="M39.6250 36.5798
L40.0821 36.5798
" />
<path d="M40.0821 36.9989
L40.0821 36.1989
" />
<path d="M40.6155 36.1989
L40.7679 36.1989
" />
<path d="M40.7679 36.1989
L40.8440 36.2370
" />
<path d="M40.8440 36.2370
L40.9202 36.3131
" />
<path d="M40.9202 36.3131
L40.9583 36.4655
" />
<path d="M40.9583 36.4655
L40.9583 36.7322
" />
<path d="M40.9583 36.7322
L40.9202 36.8846
" />
<path d="M40.9202 36.8846
L40.8440 36.9608
" />
<path d="M40.8440 36.9608
L40.7679 36.9989
" />
<path d="M40.7679 36.9989
L40.6155 36.9989
" />
<path d="M40.6155 36.9989
L40.5393 36.9608
" />
<path d="M40.5393 36.9608
L40.4631 36.8846
" />
<path d="M40.4631 36.8846
L40.4250 36.7322
" />
<path d="M40.4250 36.7322
L40.4250 36.4655
" />
<path d="M40.4250 36.4655
L40.4631 36.3131
" />
<path d="M40.4631 36.3131
L40.5393 36.2370
" />
<path d="M40.5393 36.2370
L40.6155 36.1989
" />
<path d="M41.7583 36.9989
L41.4917 36.6179
" />
<path d="M41.3012 36.9989
L41.3012 36.1989
" />
<path d="M41.3012 36.1989
L41.6060 36.1989
" />
<path d="M41.6060 36.1989
L41.6821 36.2370
" />
<path d="M41.6821 36.2370
L41.7202 36.2750
" />
<path d="M41.7202 36.2750
L41.7583 36.3512
" />
<path d="M41.7583 36.3512
L41.7583 36.4655
" />
<path d="M41.7583 36.4655
L41.7202 36.5417
" />
<path d="M41.7202 36.5417
L41.6821 36.5798
" />
<path d="M41.6821 36.5798
L41.6060 36.6179
" />
<path d="M41.6060 36.6179
L41.3012 36.6179
" />
<path d="M41.9869 36.1989
L42.4440 36.1989
" />
<path d="M42.2155 36.9989
L42.2155 36.1989
" />
<path d="M43.3202 36.5798
L43.5869 36.5798
" />
<path d="M43.7012 36.9989
L43.3202 36.9989
" />
<path d="M43.3202 36.9989
L43.3202 36.1989
" />
<path d="M43.3202 36.1989
L43.7012 36.1989
" />
<path d="M44.0440 36.9989
L44.0440 36.1989
" />
<path d="M44.0440 36.1989
L44.2345 36.1989
" />
<path d="M44.2345 36.1989
L44.3488 36.2370
" />
<path d="M44.3488 36.2370
L44.4250 36.3131
" />
<path d="M44.4250 36.3131
L44.4631 36.3893
" />
<path d="M44.4631 36.3893
L44.5012 36.5417
" />
<path d="M44.5012 36.5417
L44.5012 36.6560
" />
<path d="M44.5012 36.6560
L44.4631 36.8084
" />
<path d="M44.4631 36.8084
L44.4250 36.8846
" />
<path d="M44.4250 36.8846
L44.3488 36.9608
" />
<path d="M44.3488 36.9608
L44.2345 36.9989
" />
<path d="M44.2345 36.9989
L44.0440 36.9989
" />
<path d="M45.2631 36.2370
L45.1869 36.1989
" />
<path d="M45.1869 36.1989
L45.0726 36.1989
" />
<path d="M45.0726 36.1989
L44.9583 36.2370
" />
<path d="M44.9583 36.2370
L44.8821 36.3131
" />
<path d="M44.8821 36.3131
L44.8440 36.3893
" />
<path d="M44.8440 36.3893
L44.8060 36.5417
" />
<path d="M44.8060 36.5417
L44.8060 36.6560
" />
<path d="M44.8060 36.6560
L44.8440 36.8084
" />
<path d="M44.8440 36.8084
L44.8821 36.8846
" />
<path d="M44.8821 36.8846
L44.9583 36.9608
" />
<path d="M44.9583 36.9608
L45.0726 36.9989
" />
<path d="M45.0726 36.9989
L45.1488 36.9989
" />
<path d="M45.1488 36.9989
L45.2631 36.9608
" />
<path d="M45.2631 36.9608
L45.3012 36.9227
" />
<path d="M45.3012 36.9227
L45.3012 36.6560
" />
<path d="M45.3012 36.6560
L45.1488 36.6560
" />
<path d="M45.6440 36.5798
L45.9107 36.5798
" />
<path d="M46.0250 36.9989
L45.6440 36.9989
" />
<path d="M45.6440 36.9989
L45.6440 36.1989
" />
<path d="M45.6440 36.1989
L46.0250 36.1989
" />
</g><path style="fill:none; 
stroke:#AFAFAF; stroke-width:0.1000; stroke-opacity:1; 
stroke-linecap:round; stroke-linejoin:round;fill:none"
d="M 50.1000,40.9350
51.1000,40.9350
51.1000,41.4350
50.1000,41.4350
Z" /> 
<path style="fill:none; 
stroke:#AFAFAF; stroke-width:0.1000; stroke-opacity:1; 
stroke-linecap:round; stroke-linejoin:round;fill:none"
d="M 50.0750,36.4100
51.0750,36.4100
51.0750,36.9100
50.0750,36.9100
Z" /> 
<path style="fill:none; 
stroke:#AFAFAF; stroke-width:0.1000; stroke-opacity:1; 
stroke-linecap:round; stroke-linejoin:round;fill:none"
d="M 49.7750,38.3600
50.2750,38.3600
50.2750,39.3600
49.7750,39.3600
Z" /> 
</g>
<g style="fill:none; 
stroke:#AFAFAF; stroke-width:0.1000; stroke-opacity:1; 
stroke-linecap:round; stroke-linejoin:round;">
<path d="M44.9450 96.0000
L44.9450 102.3550
" />
<path d="M44.9450 102.3550
L46.2150 102.3550
" />
<path d="M46.2150 96.0000
L44.9450 96.0000
" />
<path d="M46.2150 100.4500
L46.2150 96.0000
" />
<path d="M46.2150 111.8800
L46.2150 102.3550
" />
<path d="M50.0250 101.4500
L49.2750 100.4500
" />
<path d="M50.7750 100.4500
L50.0250 101.4500
" />
<path d="M53.8350 96.0000
L53.8350 100.4500
" />
<path d="M53.8350 100.4500
L46.2150 100.4500
" />
<path d="M53.8350 102.3550
L53.8350 111.8800
" />
<path d="M53.8350 102.3550
L55.1050 102.3550
" />
<path d="M53.8350 111.8800
L46.2150 111.8800
" />
<path d="M55.1050 96.0000
L53.8350 96.0000
" />
<path d="M55.1050 96.0000
L55.1050 102.3550
" />
</g>
<g style="fill:none; 
stroke:#AFAFAF; stroke-width:0.3000; stroke-opacity:1; 
stroke-linecap:round; stroke-linejoin:round;">
<path d="M37.0250 34.9450
L63.0250 34.9450
" />
<path style="fill:none; 
stroke:#AFAFAF; stroke-width:0.1000; stroke-opacity:1; 
stroke-linecap:round; stroke-linejoin:round;fill:none"
d="M 37.0250,0.5250
63.0250,0.5250
63.0250,34.9450
37.0250,34.9450
Z" /> 
</g>
<g style="fill:#FFFFFF; fill-opacity:1.0000; stroke:none;">
<circle cx="48.0250" cy="73.4100" r="0.1500" /> 
<circle cx="48.0250" cy="51.4100" r="0.1500" /> 
<circle cx="52.0250" cy="59.4100" r="0.1500" /> 
<circle cx="52.0250" cy="73.4100" r="0.1500" /> 
<circle cx="52.0250" cy="91.4100" r="0.1500" /> 
<circle cx="48.0250" cy="85.4100" r="0.1500" /> 
<circle cx="48.0250" cy="63.4100" r="0.1500" /> 
<circle cx="54.0250" cy="99.4100" r="0.1500" /> 
<circle cx="48.0250" cy="91.4100" r="0.1500" /> 
<circle cx="52.0250" cy="63.4100" r="0.1500" /> 
<circle cx="52.0250" cy="51.4100" r="0.1500" /> 
<circle cx="52.0250" cy="81.4100" r="0.1500" /> 
<circle cx="52.0250" cy="79.4100" r="0.1500" /> 
<circle cx="48.0250" cy="45.4100" r="0.1500" /> 
<circle cx="48.0250" cy="55.4100" r="0.1500" /> 
<circle cx="52.0250" cy="49.4100" r="0.1500" /> 
<circle cx="52.0250" cy="67.4100" r="0.1500" /> 
<circle cx="52.0250" cy="53.4100" r="0.1500" /> 
<circle cx="52.0250" cy="47.4100" r="0.1500" /> 
<circle cx="52.0250" cy="55.4100" r="0.1500" /> 
<circle cx="48.0250" cy="61.4100" r="0.1500" /> 
<circle cx="48.0250" cy="65.4100" r="0.1500" /> 
<circle cx="48.0250" cy="71.4100" r="0.1500" /> 
<circle cx="48.0250" cy="47.4100" r="0.1500" /> 
<circle cx="48.0250" cy="83.4100" r="0.1500" /> 
<circle cx="48.0250" cy="75.4100" r="0.1500" /> 
<circle cx="48.0250" cy="59.4100" r="0.1500" /> 
<circle cx="52.0250" cy="89.4100" r="0.1500" /> 
<circle cx="52.0250" cy="71.4100" r="0.1500" /> 
<circle cx="48.0250" cy="69.4100" r="0.1500" /> 
<circle cx="52.0250" cy="45.4100" r="0.1500" /> 
<circle cx="48.0250" cy="77.4100" r="0.1500" /> 
<circle cx="51.1425" cy="36.6600" r="0.1500" /> 
<circle cx="48.0250" cy="57.4100" r="0.1500" /> 
<circle cx="52.0250" cy="61.4100" r="0.1500" /> 
<circle cx="52.0250" cy="85.4100" r="0.1500" /> 
<circle cx="46.0250" cy="99.4100" r="0.1500" /> 
<circle cx="48.0250" cy="53.4100" r="0.1500" /> 
<circle cx="48.0250" cy="79.4100" r="0.1500" /> 
<circle cx="52.0250" cy="65.4100" r="0.1500" /> 
<circle cx="51.1750" cy="41.1850" r="0.1500" /> 
<circle cx="48.0250" cy="89.4100" r="0.1500" /> 
<circle cx="52.0250" cy="57.4100" r="0.1500" /> 
<circle cx="54.0250" cy="96.4100" r="0.1500" /> 
<circle cx="52.0250" cy="69.4100" r="0.1500" /> 
<circle cx="48.0250" cy="67.4100" r="0.1500" /> 
<circle cx="48.0250" cy="87.4100" r="0.1500" /> 
<circle cx="46.0250" cy="96.4100" r="0.1500" /> 
<circle cx="52.0250" cy="75.4100" r="0.1500" /> 
<circle cx="48.0250" cy="81.4100" r="0.1500" /> 
<circle cx="52.0250" cy="93.4100" r="0.1500" /> 
<circle cx="48.0250" cy="93.4100" r="0.1500" /> 
<circle cx="52.0250" cy="87.4100" r="0.1500" /> 
<circle cx="48.0250" cy="49.4100" r="0.1500" /> 
<circle cx="52.0250" cy="83.4100" r="0.1500" /> 
<circle cx="52.0250" cy="77.4100" r="0.1500" /> 
</g>
<g style="fill:#FFFFFF; fill-opacity:1.0000; stroke:none;">
<circle cx="44.3250" cy="34.6450" r="0.1500" /> 
</g>
<g style="fill:#FFFFFF; fill-opacity:1.0000; stroke:none;">
<circle cx="46.6050" cy="34.6450" r="0.1500" /> 
</g>
<g style="fill:#FFFFFF; fill-opacity:1.0000; stroke:none;">
<circle cx="48.8850" cy="34.6450" r="0.1500" /> 
</g>
<g style="fill:#FFFFFF; fill-opacity:1.0000; stroke:none;">
<circle cx="51.1650" cy="34.6450" r="0.1500" /> 
</g>
<g style="fill:#FFFFFF; fill-opacity:1.0000; stroke:none;">
<circle cx="53.4450" cy="34.6450" r="0.1500" /> 
</g>
<g style="fill:#FFFFFF; fill-opacity:1.0000; stroke:none;">
<circle cx="55.7250" cy="34.6450" r="0.1500" /> 
</g>
<g style="fill:#FFFFFF; fill-opacity:1.0000; stroke:none;">
<circle cx="50.0250" cy="27.9450" r="0.1500" /> 
</g> 
</svg>
